<?xml version="1.0" encoding="UTF-8"?>
<svg id="Layer_2" data-name="Layer 2" xmlns="http://www.w3.org/2000/svg" xmlns:xlink="http://www.w3.org/1999/xlink" viewBox="0 0 267.45 68.68">
  <defs>
    <style>
      .cls-1 {
        letter-spacing: -.03em;
      }

      .cls-2 {
        fill: url(#linear-gradient);
        stroke-width: 0px;
      }

      .cls-3 {
        fill: #f16371;
        font-family: Malika-Regular, Malika;
        font-size: 56.74px;
      }

      .cls-4 {
        letter-spacing: 0em;
      }

      .cls-5 {
        letter-spacing: -.02em;
      }
    </style>
    <linearGradient id="linear-gradient" x1="13.42" y1="6.04" x2="260.04" y2="56.76" gradientUnits="userSpaceOnUse">
      <stop offset=".07" stop-color="#f16371"/>
      <stop offset=".29" stop-color="#f16a75"/>
      <stop offset=".61" stop-color="#f27d81"/>
      <stop offset=".98" stop-color="#f49c94"/>
    </linearGradient>
  </defs>
  <g id="Layer_1-2" data-name="Layer 1">
    <g>
      <text class="cls-3" transform="translate(0 48.14) scale(1.1 1)"><tspan x="0" y="0">Mo</tspan><tspan class="cls-5" x="78.18" y="0">s</tspan><tspan class="cls-4" x="103.83" y="0">we</tspan><tspan class="cls-1" x="176.45" y="0">e</tspan><tspan x="206.4" y="0">t.</tspan></text>
      <g>
        <path class="cls-2" d="M47.29,37.7c.46,1.36.54,2.7.25,4.03-.29,1.32-.93,2.51-1.91,3.55-.98,1.04-2.28,1.87-3.88,2.5-1.61.62-3.52.94-5.73.94-4.18,0-7.6-.53-10.27-1.59-2.67-1.06-4.7-2.93-6.08-5.62l-9.96-20.48-7.64,27.12H.5L11.59,8.31h.69l12.71,26.16,9.96-26.16h.94l11.4,29.39ZM35.89,47.29c.88,0,1.64-.25,2.29-.74.65-.49,1.12-1.16,1.41-2.01.29-.85.39-1.85.28-3.01-.1-1.15-.45-2.41-1.03-3.77l-6.95-16.85-6.01,15.32,1.38,2.84c1.42,3.06,2.82,5.2,4.2,6.41,1.38,1.21,2.86,1.82,4.45,1.82Z"/>
        <path class="cls-2" d="M67.52,17.96c2.84,0,5.31.41,7.42,1.22,2.11.81,3.88,1.92,5.32,3.32,1.44,1.4,2.52,3.04,3.23,4.91.71,1.87,1.06,3.87,1.06,5.99s-.35,4.11-1.06,5.99c-.71,1.87-1.79,3.51-3.23,4.91-1.44,1.4-3.22,2.51-5.32,3.32-2.11.81-4.58,1.22-7.42,1.22s-5.26-.41-7.39-1.22c-2.13-.81-3.92-1.92-5.36-3.32-1.44-1.4-2.52-3.04-3.23-4.91-.71-1.87-1.06-3.87-1.06-5.99s.35-4.11,1.06-5.99c.71-1.87,1.78-3.51,3.23-4.91,1.44-1.4,3.23-2.51,5.36-3.32,2.13-.81,4.59-1.22,7.39-1.22ZM67.52,47.63c2.67,0,4.84-1.26,6.51-3.77,1.67-2.51,2.51-6,2.51-10.47s-.84-8-2.51-10.5c-1.67-2.5-3.84-3.74-6.51-3.74s-4.84,1.25-6.51,3.74c-1.67,2.5-2.51,6-2.51,10.5s.83,7.95,2.51,10.47c1.67,2.52,3.84,3.77,6.51,3.77Z"/>
        <path class="cls-2" d="M97.08,24.48c0,1.02.43,1.88,1.28,2.58.86.7,1.93,1.34,3.23,1.93,1.29.59,2.68,1.17,4.17,1.76,1.48.59,2.87,1.28,4.17,2.07,1.29.79,2.37,1.75,3.23,2.87.85,1.12,1.28,2.49,1.28,4.11,0,1.51-.35,2.84-1.06,3.97s-1.66,2.08-2.85,2.84c-1.19.76-2.56,1.32-4.1,1.7-1.55.38-3.13.57-4.76.57s-3.25-.19-4.85-.57c-1.61-.38-3.06-.95-4.35-1.7-1.29-.76-2.38-1.7-3.26-2.84s-1.4-2.46-1.57-3.97h1.38c.08,1.13.41,2.15.97,3.04.56.89,1.3,1.64,2.22,2.24.92.61,1.93,1.06,3.04,1.36,1.11.3,2.22.45,3.35.45,1,0,1.96-.12,2.88-.37.92-.25,1.74-.62,2.47-1.13.73-.51,1.3-1.16,1.72-1.96.42-.79.63-1.72.63-2.78,0-.98-.42-1.82-1.25-2.5-.84-.68-1.88-1.31-3.13-1.9-1.25-.59-2.6-1.18-4.04-1.79-1.44-.6-2.79-1.3-4.04-2.07-1.25-.77-2.3-1.69-3.13-2.75-.84-1.06-1.25-2.34-1.25-3.86,0-1.32.31-2.49.94-3.49.63-1,1.46-1.83,2.51-2.5,1.04-.66,2.24-1.15,3.6-1.48,1.36-.32,2.75-.48,4.17-.48s2.81.15,4.17.45c1.36.3,2.6.77,3.73,1.39,1.13.62,2.07,1.4,2.82,2.33.75.93,1.23,2,1.44,3.21l-1.38.23c-.67-1.97-1.79-3.39-3.35-4.28-1.57-.89-3.16-1.33-4.79-1.33s-3.07.41-4.32,1.22c-1.25.81-1.88,1.96-1.88,3.43Z"/>
        <path class="cls-2" d="M142.12,24.2c1.21-2.31,2.75-4.01,4.6-5.11,1.86-1.1,3.66-1.65,5.42-1.65,1.29,0,2.47.29,3.54.88,1.07.59,1.88,1.43,2.44,2.52.56,1.1.8,2.46.72,4.08-.08,1.63-.63,3.48-1.63,5.56l-9.65,17.47-.06.23h-.56l-8.08-14.47-6.89,14.47h-.5l-16.66-29.67h8.65l11.46,20.31,3.07-6.64-7.7-13.67h8.64l3.19,5.67ZM155.21,31.23c.46-1.21.55-2.33.28-3.35-.27-1.02-.76-1.91-1.47-2.67-.71-.76-1.58-1.35-2.6-1.79-1.02-.43-2.08-.65-3.16-.65s-2.04.22-2.98.65c-.94.44-1.72,1.14-2.35,2.13l7.77,13.84,4.51-8.17Z"/>
        <path class="cls-2" d="M185.84,29.13c1.88.57,3.38,1.45,4.51,2.64,1.13,1.19,1.88,2.52,2.25,3.97.38,1.46.38,2.96,0,4.51-.38,1.55-1.15,2.96-2.32,4.23-1.17,1.27-2.75,2.31-4.73,3.12-1.98.81-4.38,1.22-7.17,1.22-2,0-3.99-.31-5.95-.94s-3.73-1.57-5.29-2.84c-1.57-1.27-2.84-2.86-3.82-4.79-.98-1.93-1.47-4.22-1.47-6.87v-.06c0-2.65.49-4.94,1.47-6.87.98-1.93,2.25-3.52,3.82-4.77,1.57-1.25,3.32-2.17,5.26-2.78,1.94-.6,3.92-.91,5.92-.91,1.75,0,3.43.22,5.04.65,1.61.44,3.03,1.08,4.26,1.93,1.23.85,2.22,1.88,2.98,3.09.75,1.21,1.13,2.61,1.13,4.2v1.25h-5.89ZM180.89,45.93c2.09,0,3.83-.42,5.23-1.25,1.4-.83,2.44-1.87,3.13-3.12.69-1.25,1.04-2.59,1.06-4.03.02-1.44-.31-2.78-1-4.03-.69-1.25-1.71-2.29-3.07-3.12-1.36-.83-3.06-1.25-5.1-1.25l-10.71-.06c-.08.64-.16,1.32-.22,2.04-.06.72-.09,1.48-.09,2.27,0,2.16.31,4.02.94,5.59.63,1.57,1.44,2.88,2.44,3.92,1,1.04,2.15,1.81,3.44,2.3,1.29.49,2.61.74,3.95.74ZM184.96,27.89c-.04-2.84-.69-4.97-1.94-6.41-1.25-1.44-2.71-2.16-4.38-2.16s-3.13.69-4.63,2.07c-1.5,1.38-2.61,3.55-3.32,6.5h14.28Z"/>
        <path class="cls-2" d="M220.54,29.13c1.88.57,3.38,1.45,4.51,2.64,1.13,1.19,1.88,2.52,2.25,3.97.38,1.46.38,2.96,0,4.51-.38,1.55-1.15,2.96-2.32,4.23-1.17,1.27-2.75,2.31-4.73,3.12-1.98.81-4.38,1.22-7.17,1.22-2,0-3.99-.31-5.95-.94s-3.73-1.57-5.29-2.84c-1.57-1.27-2.84-2.86-3.82-4.79-.98-1.93-1.47-4.22-1.47-6.87v-.06c0-2.65.49-4.94,1.47-6.87.98-1.93,2.25-3.52,3.82-4.77,1.57-1.25,3.32-2.17,5.26-2.78,1.94-.6,3.92-.91,5.92-.91,1.75,0,3.43.22,5.04.65,1.61.44,3.03,1.08,4.26,1.93,1.23.85,2.22,1.88,2.98,3.09.75,1.21,1.13,2.61,1.13,4.2v1.25h-5.89ZM215.59,45.93c2.09,0,3.83-.42,5.23-1.25,1.4-.83,2.44-1.87,3.13-3.12.69-1.25,1.04-2.59,1.06-4.03.02-1.44-.31-2.78-1-4.03-.69-1.25-1.71-2.29-3.07-3.12-1.36-.83-3.06-1.25-5.1-1.25l-10.71-.06c-.08.64-.16,1.32-.22,2.04-.06.72-.09,1.48-.09,2.27,0,2.16.31,4.02.94,5.59.63,1.57,1.44,2.88,2.44,3.92,1,1.04,2.15,1.81,3.44,2.3,1.29.49,2.61.74,3.95.74ZM219.66,27.89c-.04-2.84-.69-4.97-1.94-6.41-1.25-1.44-2.71-2.16-4.38-2.16s-3.13.69-4.63,2.07c-1.5,1.38-2.61,3.55-3.32,6.5h14.28Z"/>
        <path class="cls-2" d="M254.05,44.74c-1.29,1.29-2.78,2.23-4.45,2.84s-3.38.91-5.14.91c-1.42,0-2.79-.2-4.1-.6s-2.49-.98-3.51-1.76c-1.02-.77-1.84-1.74-2.44-2.89-.61-1.15-.91-2.47-.91-3.94v-19.57h-5.39v-1.25h5.39V7.46h4.01c1.04,0,1.93.33,2.66.99.73.66,1.1,1.47,1.1,2.41v7.6h8.27v1.25h-8.27v19.57c0,1.06.18,2,.53,2.81.35.81.82,1.5,1.41,2.07.58.57,1.26.99,2.04,1.28.77.28,1.58.43,2.41.43,1.92,0,3.7-.68,5.32-2.04l1.06.91Z"/>
        <path class="cls-2" d="M256.68,42.52c0-1.4.44-2.45,1.32-3.15.88-.7,1.84-1.05,2.88-1.05s2.07.35,2.94,1.05c.88.7,1.32,1.75,1.32,3.15,0,2.16-.44,3.76-1.32,4.82-.88,1.06-1.84,1.59-2.88,1.59s-2.07-.53-2.94-1.59c-.88-1.06-1.32-2.67-1.32-4.82Z"/>
      </g>
    </g>
  </g>
</svg>